<svg width="100" height="100" viewBox="0 0 100 100" fill="none" xmlns="http://www.w3.org/2000/svg">
<path d="M50.0419 58.3298V100C47.1919 100 44.4258 99.7482 41.7016 99.3286C38.8516 98.867 36.0436 98.1116 33.3613 97.1884C30.4694 96.1813 27.6613 94.8804 25.0209 93.3277V91.6912H22.3805C20.3688 90.3483 18.4828 88.8796 16.6806 87.2849C15.2976 86.068 13.9983 84.7251 12.741 83.3403C11.1484 81.5778 9.68147 79.6475 8.34032 77.6752C7.75356 76.794 7.20872 75.9127 6.70578 75.0315C5.19698 72.3877 3.89773 69.6181 2.84995 66.6806C1.886 63.995 1.1735 61.2254 0.712482 58.3298H33.3194V66.6806H11.8189C13.1182 69.6601 14.7527 72.4717 16.6806 75.0315C19.0277 78.1788 21.8357 80.9903 25.0209 83.3823C27.5775 85.3126 30.3856 86.9492 33.3613 88.2501C36.0017 89.4251 38.7678 90.3063 41.7016 90.8938V58.3718H50.0419V58.3298Z" fill="white"/>
<path d="M25.0629 91.6492V93.2858C24.1827 92.7822 23.3026 92.2367 22.4225 91.6492H25.0629Z" fill="white"/>
<path d="M41.7016 0.671425C38.8516 1.13303 36.0436 1.88838 33.3613 2.81159C30.4694 3.81872 27.6613 5.11959 25.0209 6.67226C24.1408 7.17583 23.2607 7.72137 22.3805 8.30886C20.3688 9.65171 18.4828 11.1204 16.6806 12.7151C15.2976 13.932 13.9983 15.2749 12.741 16.6597C11.1484 18.4641 9.68147 20.3525 8.34032 22.3668C7.75356 23.248 7.20872 24.1292 6.70578 25.0105C5.19698 27.6542 3.89773 30.4238 2.84995 33.3613C1.886 36.047 1.1735 38.8166 0.712482 41.7121C0.251459 44.4398 0 47.2094 0 50.063H8.34032C8.34032 47.2094 8.63369 44.3978 9.17854 41.7121C9.76529 38.8166 10.6454 36.005 11.8189 33.3613H41.6597V50.021H50V0C47.15 0 44.3839 0.251789 41.6597 0.713392L41.7016 0.671425ZM41.7016 24.9685H16.7225C19.0696 21.8212 21.8776 19.0097 25.0629 16.6177C27.6194 14.6874 30.4275 13.0508 33.4032 11.7499C36.0436 10.5749 38.8097 9.69367 41.7435 9.10617V24.9266L41.7016 24.9685Z" fill="white"/>
<path d="M100 49.979H75.0209V41.6282H90.8214C90.2347 38.7327 89.3546 35.9211 88.181 33.2774C86.8818 30.2979 85.2473 27.4864 83.3194 24.9266C80.9723 21.7793 78.1643 18.9677 74.979 16.5757C72.4225 14.6454 69.6144 13.0088 66.6387 11.7079V49.8951H58.2984V0.587492C61.1484 1.0491 63.9564 1.80445 66.6387 2.72765C69.5306 3.73479 72.3386 5.03567 74.979 6.58834C75.8592 7.09191 76.7393 7.63743 77.6194 8.22493C79.6312 9.56777 81.5172 11.0365 83.3194 12.6311C84.7024 13.8481 86.0017 15.1909 87.259 16.5757C88.8516 18.3802 90.3185 20.2686 91.6597 22.2828C92.2464 23.1641 92.7913 24.0453 93.2942 24.9266C94.803 27.5703 96.1023 30.3399 97.15 33.2774C98.114 35.9631 98.8265 38.7327 99.2875 41.6282C99.7485 44.3559 100 47.1255 100 49.979Z" fill="white"/>
<path d="M77.6614 91.6492C76.8231 92.2367 75.943 92.7822 75.0209 93.2858V91.6492H77.6614Z" fill="white"/>
<path d="M90.8214 58.3298C90.2347 61.2254 89.3546 64.0369 88.181 66.6806H66.6806V58.3298H58.3403V99.3286C61.1903 98.867 63.9983 98.1116 66.6806 97.1884C69.5725 96.1813 72.3805 94.8804 75.0209 93.3277V91.6912H77.6614C79.6731 90.3483 81.5591 88.8796 83.3613 87.2849C84.7443 86.068 86.0436 84.7251 87.3009 83.3403C88.8935 81.5778 90.3604 79.6475 91.7016 77.6752C92.2884 76.794 92.8332 75.9127 93.3361 75.0315C94.8449 72.3877 96.1442 69.6181 97.1919 66.6806C98.1559 63.995 98.8684 61.2254 99.3294 58.3298H90.8214ZM83.3613 74.9895C81.0142 78.1368 78.2062 80.9484 75.0209 83.2984C72.4644 85.2287 69.6563 86.8653 66.6806 88.1662V74.9475H83.3194L83.3613 74.9895Z" fill="white"/>
</svg>
